<?xml version="1.0" encoding="utf-8"?>
<!-- Generator: Adobe Illustrator 27.7.0, SVG Export Plug-In . SVG Version: 6.00 Build 0)  -->
<svg version="1.1" id="Layer_1" xmlns="http://www.w3.org/2000/svg" xmlns:xlink="http://www.w3.org/1999/xlink" x="0px" y="0px"
	 viewBox="0 0 48 48" style="enable-background:new 0 0 48 48;" xml:space="preserve">
<style type="text/css">
	.st0{display:none;fill:#969696;}
	.st1{fill:#969696;stroke:#969696;stroke-width:1.5;stroke-miterlimit:10;}
</style>
<path class="st0" d="M12.5,4C10,4,8,6,8,8.5v31C8,42,10,44,12.5,44h23c2.5,0,4.5-2,4.5-4.5v-23c0-0.4-0.2-0.8-0.4-1.1l0,0l-11-11
	C28.3,4.2,27.9,4,27.5,4H12.5z M12.5,7H26v6.5c0,2.5,2,4.5,4.5,4.5H37v21.5c0,0.8-0.7,1.5-1.5,1.5h-23c-0.8,0-1.5-0.7-1.5-1.5v-31
	C11,7.7,11.7,7,12.5,7z M29,9.1l5.9,5.9h-4.4c-0.8,0-1.5-0.7-1.5-1.5V9.1z M17.5,22c-0.8,0-1.5,0.7-1.5,1.5c0,0.8,0.7,1.5,1.5,1.5
	c0,0,0,0,0,0h13c0.8,0,1.5-0.7,1.5-1.5c0-0.8-0.7-1.5-1.5-1.5c0,0,0,0,0,0H17.5z M17.5,28c-0.8,0-1.5,0.7-1.5,1.5
	c0,0.8,0.7,1.5,1.5,1.5c0,0,0,0,0,0h13c0.8,0,1.5-0.7,1.5-1.5c0-0.8-0.7-1.5-1.5-1.5c0,0,0,0,0,0H17.5z M17.5,34
	c-0.8,0-1.5,0.7-1.5,1.5c0,0.8,0.7,1.5,1.5,1.5c0,0,0,0,0,0h9c0.8,0,1.5-0.7,1.5-1.5c0-0.8-0.7-1.5-1.5-1.5c0,0,0,0,0,0H17.5z"/>
<g id="Printer">
	<path class="st1" d="M42.4,11.3h-3.8V5.6c0-1.6-1.3-2.8-2.8-2.8H12.3c-1.6,0-2.8,1.3-2.8,2.8v5.7H5.6c-2.4,0-4.4,2-4.4,4.4v18.7
		c0,2.4,2,4.4,4.4,4.4h1.7c0.4,0,0.7-0.3,0.7-0.7c0-0.4-0.3-0.7-0.7-0.7H5.6c-1.7,0-3-1.3-3-3V15.7c0-1.7,1.3-3,3-3h36.7
		c1.7,0,3,1.3,3,3v18.7c0,1.7-1.3,3-3,3h-1.3c-0.4,0-0.7,0.3-0.7,0.7c0,0.4,0.3,0.7,0.7,0.7h1.3c2.4,0,4.4-2,4.4-4.4V15.7
		C46.8,13.3,44.8,11.3,42.4,11.3z M10.8,5.6c0-0.8,0.6-1.4,1.4-1.4h23.5c0.8,0,1.4,0.6,1.4,1.4v5.7H10.8V5.6z"/>
	<path class="st1" d="M32.6,33.4H15.5c-0.4,0-0.7,0.3-0.7,0.7s0.3,0.7,0.7,0.7h17.1c0.4,0,0.7-0.3,0.7-0.7S32.9,33.4,32.6,33.4z"/>
	<path class="st1" d="M32.6,38.4H15.5c-0.4,0-0.7,0.3-0.7,0.7s0.3,0.7,0.7,0.7h17.1c0.4,0,0.7-0.3,0.7-0.7S32.9,38.4,32.6,38.4z"/>
	<circle class="st1" cx="6.9" cy="16.9" r="1.4"/>
	<circle class="st1" cx="11.4" cy="16.9" r="1.4"/>
	<circle class="st1" cx="15.9" cy="16.9" r="1.4"/>
	<path class="st1" d="M9.1,45.5H39V27H9.1V45.5z M10.8,28.7h26.5v15.1H10.8V28.7z"/>
</g>
</svg>
