<?xml version="1.0" encoding="utf-8"?>
<!-- Generator: Adobe Illustrator 27.7.0, SVG Export Plug-In . SVG Version: 6.00 Build 0)  -->
<svg version="1.1" id="Layer_1" xmlns="http://www.w3.org/2000/svg" xmlns:xlink="http://www.w3.org/1999/xlink" x="0px" y="0px"
	 viewBox="0 0 48 48" style="enable-background:new 0 0 48 48;" xml:space="preserve">
<style type="text/css">
	.st0{display:none;fill:#969696;}
	.st1{display:none;}
	.st2{display:inline;fill:#969696;stroke:#969696;stroke-width:1.5;stroke-miterlimit:10;}
	.st3{fill:#969696;stroke:#969696;stroke-width:1.5;stroke-miterlimit:10;}
</style>
<path class="st0" d="M12.5,4C10,4,8,6,8,8.5v31C8,42,10,44,12.5,44h23c2.5,0,4.5-2,4.5-4.5v-23c0-0.4-0.2-0.8-0.4-1.1l0,0l-11-11
	C28.3,4.2,27.9,4,27.5,4H12.5z M12.5,7H26v6.5c0,2.5,2,4.5,4.5,4.5H37v21.5c0,0.8-0.7,1.5-1.5,1.5h-23c-0.8,0-1.5-0.7-1.5-1.5v-31
	C11,7.7,11.7,7,12.5,7z M29,9.1l5.9,5.9h-4.4c-0.8,0-1.5-0.7-1.5-1.5V9.1z M17.5,22c-0.8,0-1.5,0.7-1.5,1.5c0,0.8,0.7,1.5,1.5,1.5
	c0,0,0,0,0,0h13c0.8,0,1.5-0.7,1.5-1.5c0-0.8-0.7-1.5-1.5-1.5c0,0,0,0,0,0H17.5z M17.5,28c-0.8,0-1.5,0.7-1.5,1.5
	c0,0.8,0.7,1.5,1.5,1.5c0,0,0,0,0,0h13c0.8,0,1.5-0.7,1.5-1.5c0-0.8-0.7-1.5-1.5-1.5c0,0,0,0,0,0H17.5z M17.5,34
	c-0.8,0-1.5,0.7-1.5,1.5c0,0.8,0.7,1.5,1.5,1.5c0,0,0,0,0,0h9c0.8,0,1.5-0.7,1.5-1.5c0-0.8-0.7-1.5-1.5-1.5c0,0,0,0,0,0H17.5z"/>
<g id="Printer" class="st1">
	<path class="st2" d="M42.4,11.3h-3.8V5.6c0-1.6-1.3-2.8-2.8-2.8H12.3c-1.6,0-2.8,1.3-2.8,2.8v5.7H5.6c-2.4,0-4.4,2-4.4,4.4v18.7
		c0,2.4,2,4.4,4.4,4.4h1.7c0.4,0,0.7-0.3,0.7-0.7c0-0.4-0.3-0.7-0.7-0.7H5.6c-1.7,0-3-1.3-3-3V15.7c0-1.7,1.3-3,3-3h36.7
		c1.7,0,3,1.3,3,3v18.7c0,1.7-1.3,3-3,3h-1.3c-0.4,0-0.7,0.3-0.7,0.7c0,0.4,0.3,0.7,0.7,0.7h1.3c2.4,0,4.4-2,4.4-4.4V15.7
		C46.8,13.3,44.8,11.3,42.4,11.3z M10.8,5.6c0-0.8,0.6-1.4,1.4-1.4h23.5c0.8,0,1.4,0.6,1.4,1.4v5.7H10.8V5.6z"/>
	<path class="st2" d="M32.6,33.4H15.5c-0.4,0-0.7,0.3-0.7,0.7s0.3,0.7,0.7,0.7h17.1c0.4,0,0.7-0.3,0.7-0.7S32.9,33.4,32.6,33.4z"/>
	<path class="st2" d="M32.6,38.4H15.5c-0.4,0-0.7,0.3-0.7,0.7s0.3,0.7,0.7,0.7h17.1c0.4,0,0.7-0.3,0.7-0.7S32.9,38.4,32.6,38.4z"/>
	<circle class="st2" cx="6.9" cy="16.9" r="1.4"/>
	<circle class="st2" cx="11.4" cy="16.9" r="1.4"/>
	<circle class="st2" cx="15.9" cy="16.9" r="1.4"/>
	<path class="st2" d="M9.1,45.5H39V27H9.1V45.5z M10.8,28.7h26.5v15.1H10.8V28.7z"/>
</g>
<g id="Certificate-file">
	<path class="st3" d="M40,11.5c0-0.1,0-0.1,0-0.2c0,0,0,0,0-0.1c0-0.1-0.1-0.1-0.1-0.2c0,0-2.5-2.5-5-5c-1.2-1.2-2.5-2.5-3.4-3.4
		c-0.7-0.7-1.6-1.7-2.3-1.8l-18.9,0C9,0.9,8,1.9,8,3.1v36.6c0,0.6,0.2,1.2,0.7,1.7c0.4,0.4,1,0.7,1.7,0.7h9.5c0.4,0,0.7-0.3,0.7-0.7
		c0-0.4-0.3-0.7-0.7-0.7h-9.5c-0.2,0-0.5-0.1-0.6-0.3c-0.2-0.2-0.3-0.4-0.3-0.6V3.1c0-0.4,0.4-0.8,0.8-0.8l18.4,0c0,1.7,0,6.2,0,9.2
		c0,0.2,0.1,0.4,0.2,0.5c0.1,0.1,0.3,0.2,0.5,0.2h9.2v27.6c0,0.2-0.1,0.4-0.2,0.6c-0.1,0.1-0.3,0.2-0.6,0.2h-0.3
		c-0.4,0-0.7,0.3-0.7,0.7c0,0.4,0.3,0.7,0.7,0.7h0.3c0.6,0,1.2-0.2,1.6-0.7c0.4-0.4,0.7-1,0.7-1.6L40,11.5C40,11.5,40,11.5,40,11.5z
		 M30.1,10.8c0-3.8,0.1-6.1,0-7.4c1.7,1.7,4.8,4.8,7.4,7.4H30.1z"/>
	<path class="st3" d="M34.5,36.6c0-0.1-0.1-0.2-0.1-0.2c1-1.3,1.7-2.9,1.7-4.6c0-4-3.2-7.2-7.2-7.2c-4,0-7.2,3.2-7.2,7.2
		c0,1.9,0.7,3.5,1.9,4.8L21,44.9c-0.1,0.3,0,0.6,0.2,0.8c0.2,0.2,0.5,0.2,0.8,0.1l2.5-1.2l1.5,2.2c0.1,0.2,0.4,0.3,0.6,0.3
		c0,0,0.1,0,0.1,0c0.3,0,0.5-0.3,0.6-0.5l1.7-6.2l1.7,6.2c0.1,0.3,0.3,0.5,0.6,0.5c0,0,0.1,0,0.1,0c0.2,0,0.5-0.1,0.6-0.3l1.6-2.2
		l2.5,1.2c0.3,0.1,0.6,0.1,0.8-0.1c0.2-0.2,0.3-0.5,0.2-0.8L34.5,36.6z M28.8,25.9c3.2,0,5.9,2.6,5.9,5.9c0,3.2-2.6,5.9-5.9,5.9
		c-3.2,0-5.9-2.6-5.9-5.9C22.9,28.5,25.5,25.9,28.8,25.9z M26.3,44.7l-1-1.5c-0.2-0.3-0.6-0.4-0.9-0.2l-1.6,0.7l1.8-6.2
		c0.9,0.7,2,1.1,3.2,1.3L26.3,44.7z M33.5,43c-0.3-0.2-0.7,0-0.9,0.2l-1,1.5L30,38.8c1.2-0.2,2.3-0.7,3.2-1.4l1.9,6.4L33.5,43z"/>
	<path class="st3" d="M28.8,35.3c2,0,3.6-1.6,3.6-3.6c0-2-1.6-3.6-3.6-3.6s-3.6,1.6-3.6,3.6C25.2,33.7,26.8,35.3,28.8,35.3z
		 M28.8,29.5c1.2,0,2.2,1,2.2,2.2c0,1.2-1,2.2-2.2,2.2c-1.2,0-2.2-1-2.2-2.2C26.6,30.5,27.6,29.5,28.8,29.5z"/>
</g>
</svg>
